<svg xmlns="http://www.w3.org/2000/svg" viewBox="0 0 92 86.475" fill="#dac615"><path d="M83 0H9a9 9 0 0 0-9 9v51.17a9 9 0 0 0 9 9h74a9 9 0 0 0 9-9V9a9 9 0 0 0-9-9ZM53.44 12.6l6.17 11.05L53.45 34a1 1 0 0 0 0 1l6.17 11-6.17 10.39a1 1 0 0 0 0 1l5.47 9.78H32.83l5.72-9.59a1 1 0 0 0 0-1l-6.16-11.05 6.16-10.33a1 1 0 0 0 0-1l-6.17-11.06 6.17-10.34a1 1 0 0 0 0-1L33.1 2h26.07l-5.72 9.6a1 1 0 0 0-.01 1Zm7.78 32.2-5.76-10.29 5.9-9.89H90V44.8ZM30.79 24.38l5.75 10.29-5.9 9.89H2V24.38ZM9 2h21.81l5.73 10.25-6 10.12H2V9a7 7 0 0 1 7-7Zm21.47 44.56a.93.93 0 0 0 .09.08 1 1 0 0 0 .21.09l5.76 10.32-6 10.12H9a7 7 0 0 1-7-7V46.56ZM83 67.17H61.19l-5.73-10.25 6-10.12H90v13.37a7 7 0 0 1-7 7ZM61.53 22.62a.94.94 0 0 0-.09-.08 1 1 0 0 0-.2-.07l-5.78-10.34L61.5 2H83a7 7 0 0 1 7 7v13.62Z"/><path d="M52.42 5H39.08a1 1 0 0 0 0 2h13.34a1 1 0 0 0 0-2Zm0 57H39.08a1 1 0 0 0 0 2h13.34a1 1 0 0 0 0-2Z"/></svg>